<svg width="64" height="64" viewBox="0 0 64 64" fill="none" xmlns="http://www.w3.org/2000/svg">
<rect width="64" height="64" rx="21.75" fill="#09090A"/>
<path d="M29.5135 45.6089L28.3878 45.406L27.7919 45.203C26.291 44.8197 22.7859 43.4441 20.773 41.0086L14.0189 43.3764C15.9833 46.308 22.0708 52.1306 30.7054 51.9683C33.7072 52.1938 40.9689 51.3188 46.0014 46.0149C48.8266 43.6696 53.6295 36.3947 50.2392 26.0574L44.6108 33.6345C44.3897 36.8142 41.822 43.62 33.3204 45.406L32.5595 45.5413L31.1689 45.6766L29.5135 45.6089Z" fill="white"/>
<path d="M12.0986 39.1143L17.9919 34.3787C17.5284 31.4696 18.1773 24.7585 24.4811 21.1865C30.7849 17.6144 37.0842 20.4649 39.4459 22.3366L45.5378 18.9539C43.75 16.9469 38.2805 12.9464 30.7054 13.0005C23.1303 13.0547 17.4401 17.5783 15.5419 19.8334C12.9374 22.7199 8.60243 30.6172 12.0986 39.1143Z" fill="white"/>
<path d="M56 14.8948L7 44.2559L34.4135 33.0256L27.7919 45.203L28.3878 45.406L29.5135 45.6089L31.1689 45.6766L32.5595 45.5413L33.3204 45.406L56 14.8948Z" fill="white"/>
</svg>
