<svg width="1200" height="1200" viewBox="0 0 1200 1200" fill="none" xmlns="http://www.w3.org/2000/svg">
<rect width="1200" height="1200" rx="348" fill="#09090A"/>
<path d="M560.27 841.814L539.457 838.124L528.438 834.435C500.687 827.466 435.879 802.458 398.659 758.182L273.778 801.228C310.1 854.523 422.656 960.375 582.308 957.423C637.811 961.523 772.078 945.616 865.127 849.193C917.365 806.557 1006.17 674.304 943.484 486.378L839.416 624.125C835.328 681.929 787.852 805.656 630.658 838.124L616.589 840.584L590.878 843.044L560.27 841.814Z" fill="white"/>
<path d="M238.273 723.745L347.238 637.653C338.668 584.768 350.666 462.764 467.222 397.826C583.777 332.888 700.251 384.707 743.919 418.734L856.557 357.24C823.5 320.753 722.371 248.026 582.308 249.01C442.245 249.994 337.035 332.232 301.938 373.228C253.781 425.703 173.629 569.272 238.273 723.745Z" fill="white"/>
<path d="M1050 283.447L144 817.216L650.87 613.055L528.438 834.435L539.457 838.124L560.27 841.814L590.878 843.044L616.589 840.584L630.658 838.124L1050 283.447Z" fill="white"/>
</svg>
