<svg width="128" height="128" viewBox="0 0 128 128" fill="none" xmlns="http://www.w3.org/2000/svg">
<rect width="128" height="128" rx="43.5" fill="#09090A"/>
<path d="M59.6486 89.7095L57.4662 89.3192L56.3108 88.9289C53.4009 88.1917 46.6054 85.5463 42.7027 80.8627L29.6081 85.4162C33.4167 91.0539 45.2189 102.251 61.9595 101.939C67.7793 102.373 81.8581 100.69 91.6149 90.4901C97.0923 85.98 106.404 71.9898 99.8311 52.1105L88.9189 66.6817C88.4902 72.7965 83.5121 85.8846 67.0293 89.3192L65.5541 89.5794L62.8581 89.8396L59.6486 89.7095Z" fill="white"/>
<path d="M25.8851 77.2199L37.3108 68.1128C36.4122 62.5185 37.6703 49.6125 49.8919 42.7432C62.1135 35.8739 74.3266 41.3555 78.9054 44.9549L90.7162 38.4499C87.25 34.5902 76.6459 26.897 61.9595 27.001C47.273 27.1051 36.241 35.8045 32.5608 40.1412C27.5113 45.6922 19.1068 60.8793 25.8851 77.2199Z" fill="white"/>
<path d="M111 30.6439L16 87.1075L69.1486 65.5108L56.3108 88.9289L57.4662 89.3192L59.6486 89.7095L62.8581 89.8396L65.5541 89.5794L67.0293 89.3192L111 30.6439Z" fill="white"/>
</svg>
