<svg width="256" height="256" viewBox="0 0 256 256" fill="none" xmlns="http://www.w3.org/2000/svg">
<rect width="256" height="256" rx="87" fill="#09090A"/>
<path d="M120.216 179.091L115.805 178.3L113.47 177.509C107.589 176.015 93.8551 170.654 85.9676 161.162L59.5027 170.39C67.2 181.816 91.053 204.509 124.886 203.876C136.649 204.755 165.103 201.345 184.822 180.673C195.892 171.533 214.711 143.179 201.427 102.891L179.373 132.422C178.507 144.814 168.446 171.339 135.133 178.3L132.151 178.828L126.703 179.355L120.216 179.091Z" fill="white"/>
<path d="M51.9784 153.779L75.0703 135.322C73.2541 123.984 75.7968 97.8281 100.497 83.9063C125.198 69.9845 149.881 81.0938 159.135 88.3887L183.005 75.2051C176 67.3829 154.569 51.7912 124.886 52.0021C95.2043 52.2131 72.9081 69.8438 65.4703 78.6328C55.2649 89.8828 38.2789 120.662 51.9784 153.779Z" fill="white"/>
<path d="M224 59.3849L32 173.818L139.416 130.049L113.47 177.509L115.805 178.3L120.216 179.091L126.703 179.355L132.151 178.828L135.133 178.3L224 59.3849Z" fill="white"/>
</svg>
