<svg width="512" height="512" viewBox="0 0 512 512" fill="none" xmlns="http://www.w3.org/2000/svg">
<rect width="512" height="512" rx="174" fill="#09090A"/>
<path d="M240.216 356.33L231.555 354.784L226.97 353.239C215.423 350.319 188.455 339.843 172.968 321.296L121.003 339.328C136.117 361.654 182.953 405.995 249.386 404.758C272.482 406.476 328.353 399.813 367.072 359.421C388.809 341.561 425.761 286.16 399.677 207.437L356.373 265.14C354.672 289.354 334.917 341.183 269.506 354.784L263.651 355.814L252.953 356.845L240.216 356.33Z" fill="white"/>
<path d="M106.228 306.871L151.57 270.807C148.004 248.653 152.997 197.546 201.497 170.343C249.998 143.141 298.464 164.848 316.635 179.102L363.505 153.342C349.75 138.057 307.669 107.592 249.386 108.004C191.104 108.416 147.325 142.866 132.72 160.039C112.682 182.021 79.3289 242.162 106.228 306.871Z" fill="white"/>
<path d="M444 122.43L67 346.026L277.916 260.503L226.97 353.239L231.555 354.784L240.216 356.33L252.953 356.845L263.651 355.814L269.506 354.784L444 122.43Z" fill="white"/>
</svg>
