<svg width="3641" height="702" viewBox="0 0 3641 702" fill="none" xmlns="http://www.w3.org/2000/svg">
<path d="M413.973 586.961L393.274 583.308L382.316 579.655C354.718 572.754 290.268 547.994 253.254 504.155L129.062 546.776C165.183 599.545 277.118 704.352 435.889 701.429C491.086 705.488 624.612 689.739 717.147 594.268C769.097 552.053 857.411 421.105 795.072 235.034L691.578 371.421C687.513 428.655 640.299 551.16 483.972 583.308L469.981 585.743L444.412 588.179L413.973 586.961Z" fill="black"/>
<path d="M93.7527 470.058L202.116 384.816C193.593 332.453 205.525 211.653 321.438 147.357C437.35 83.0598 553.182 134.367 596.608 168.058L708.624 107.171C675.75 71.0447 575.179 -0.964408 435.889 0.00978538C296.599 0.983979 191.97 82.4101 157.066 123.001C109.175 174.959 29.4651 317.11 93.7527 470.058Z" fill="black"/>
<path d="M901 34.1066L0 562.606L504.073 360.461L382.316 579.655L393.274 583.308L413.973 586.961L444.412 588.179L469.981 585.743L483.972 583.308L901 34.1066Z" fill="black"/>
<path d="M2173 183V552H2267.5V183H2173Z" fill="black"/>
<path d="M1649 183V552H1743.5V183H1649Z" fill="black"/>
<path d="M1743.5 421.5H1808H1934.5V352.5H1743.5V421.5Z" fill="black"/>
<path d="M1808 421.5L1956 552H2097L1934.5 421.5H1808Z" fill="black"/>
<path d="M1934.5 352.5V421.5C1971.83 425.167 2051 413 2068 338V259C2063.17 234.667 2037.6 185.4 1974 183H1743.5V185V258L1934.5 259C1947 260.5 1967 273.1 1967 305.5C1967 337.9 1945.67 351.5 1934.5 352.5Z" fill="black"/>
<path d="M2066 345.5C2071 330.833 2078 291.5 2066 251.5V345.5Z" fill="black"/>
<path d="M2942 183V552H3036.5V183H2942Z" fill="black"/>
<path d="M3156 183V552H3250.5V183H3156Z" fill="black"/>
<path d="M3546 183V552H3640.5V183H3546Z" fill="black"/>
<path d="M3250 281.5L3535.5 552H3546V430L3277.5 183H3250V281.5Z" fill="black"/>
<path d="M1455 437C1455 451.5 1436.2 471.7 1415 472.5V552C1460.5 552 1553.5 539.6 1559.5 452L1455 437Z" fill="black"/>
<path d="M1206 258H1420C1430 258.667 1451 265.6 1455 288V437L1559.5 452V284.5C1561.9 207.3 1494.17 184.667 1460 183H1172C1101.6 184.2 1075.67 250.5 1071.5 283.5V433C1069.5 528.2 1153.67 552 1196 552H1415V472.5H1206C1195.67 470.333 1175.1 459.4 1175.5 433V291C1175 280 1180.4 258 1206 258Z" fill="black"/>
<path d="M2713.53 472.5H2504.53C2494.2 470.333 2473.63 459.4 2474.03 433V291C2473.53 280 2478.93 258 2504.53 258H2580H2810.5V183H2470.54C2400.14 184.2 2374.2 250.5 2370.04 283.5V433C2368.04 528.2 2452.2 552 2494.54 552H2713.53V472.5Z" fill="black"/>
<path d="M2713.53 472.5V552H2765.5C2825.5 554 2831.5 525.667 2830.5 507.5V323H2611.5V398H2741V439.5C2741 465.9 2722.69 472.5 2713.53 472.5Z" fill="black"/>
</svg>
