<svg width="901" height="702" viewBox="0 0 901 702" fill="none" xmlns="http://www.w3.org/2000/svg">
<path d="M413.973 586.961L393.274 583.308L382.316 579.655C354.718 572.754 290.268 547.994 253.254 504.155L129.062 546.776C165.183 599.545 277.118 704.352 435.889 701.429C491.086 705.488 624.612 689.739 717.147 594.268C769.097 552.053 857.411 421.105 795.072 235.034L691.578 371.421C687.513 428.655 640.299 551.16 483.972 583.308L469.981 585.743L444.412 588.179L413.973 586.961Z" fill="black"/>
<path d="M93.7527 470.058L202.116 384.816C193.593 332.453 205.525 211.653 321.438 147.357C437.35 83.0598 553.182 134.367 596.608 168.058L708.624 107.171C675.75 71.0447 575.179 -0.964408 435.889 0.00978538C296.599 0.983979 191.97 82.4101 157.066 123.001C109.175 174.959 29.4651 317.11 93.7527 470.058Z" fill="black"/>
<path d="M901 34.1066L0 562.606L504.073 360.461L382.316 579.655L393.274 583.308L413.973 586.961L444.412 588.179L469.981 585.743L483.972 583.308L901 34.1066Z" fill="black"/>
</svg>
